<?xml version="1.0" standalone="no"?><!DOCTYPE svg PUBLIC "-//W3C//DTD SVG 1.1//EN" "http://www.w3.org/Graphics/SVG/1.1/DTD/svg11.dtd"><svg t="1673502999065" class="icon" viewBox="0 0 1024 1024" version="1.1" xmlns="http://www.w3.org/2000/svg" p-id="2522" xmlns:xlink="http://www.w3.org/1999/xlink" width="200" height="200"><path d="M89.4 244.4c0 36.2 20.7 69.6 54.4 87.8 33.7 18.1 75.1 18.1 108.8 0s54.4-51.6 54.4-87.8c0-56-48.7-101.3-108.8-101.3-60.1 0-108.8 45.4-108.8 101.3z m0 0" fill="#65C8D0" p-id="2523"></path><path d="M198.2 346.3c-60.3 0-109.3-45.7-109.3-101.9s49-101.9 109.3-101.9 109.3 45.7 109.3 101.9-49 101.9-109.3 101.9z m0-202.6c-59.7 0-108.3 45.2-108.3 100.8 0 55.6 48.6 100.8 108.3 100.8 59.7 0 108.3-45.2 108.3-100.8 0-55.5-48.6-100.8-108.3-100.8z m0 0" fill="#65C8D0" p-id="2524"></path><path d="M371.5 770.3c0 36.2 20.7 69.7 54.4 87.8 33.7 18.1 75.1 18.1 108.8 0s54.4-51.6 54.4-87.8c0-36.2-20.7-69.6-54.4-87.8-33.7-18.1-75.1-18.1-108.8 0-33.6 18.1-54.4 51.6-54.4 87.8z m0 0" fill="#65C8D0" p-id="2525"></path><path d="M480.3 872.1C420 872.1 371 826.5 371 770.3c0-56.1 49-101.9 109.3-101.9s109.3 45.7 109.3 101.9-49.1 101.8-109.3 101.8z m0-202.6c-59.7 0-108.3 45.2-108.3 100.8 0 55.6 48.6 100.8 108.3 100.8 59.7 0 108.3-45.2 108.3-100.8 0-55.6-48.6-100.8-108.3-100.8z m0 0" p-id="2526"></path><path d="M290.8 297.8L410 373.9" fill="#BA9BC9" p-id="2527"></path><path d="M290.2 298.6l1.1-1.8 119.3 76.1-1.1 1.8-119.3-76.1z m0 0" fill="#2B4298" p-id="2528"></path><path d="M611.7 426.6l119.4-52.7" fill="#BA9BC9" p-id="2529"></path><path d="M611.3 425.7l119.4-52.8 0.9 1.9-119.4 52.8-0.9-1.9z m0 0" fill="#2B4298" p-id="2530"></path><path d="M509.9 500.5L480.3 669" fill="#BA9BC9" p-id="2531"></path><path d="M479.2 668.8l29.6-168.4 2.1 0.4-29.6 168.4-2.1-0.4z m0 0" fill="#2B4298" p-id="2532"></path><path d="M394.1 426.6c0 36.2 20.7 69.7 54.4 87.8 33.7 18.1 75.1 18.1 108.8 0s54.4-51.6 54.4-87.8c0-36.2-20.7-69.7-54.4-87.8-33.7-18.1-75.1-18.1-108.8 0-33.7 18.2-54.4 51.6-54.4 87.8z m0 0" fill="#65C8D0" p-id="2533"></path><path d="M502.9 528.5c-60.3 0-109.3-45.7-109.3-101.9 0-56.1 49-101.9 109.3-101.9s109.3 45.7 109.3 101.9c0.1 56.2-49 101.9-109.3 101.9z m0-202.6c-59.7 0-108.3 45.2-108.3 100.8 0 55.6 48.6 100.8 108.3 100.8 59.7 0 108.3-45.2 108.3-100.8 0-55.5-48.6-100.8-108.3-100.8z m0 0" p-id="2534"></path><path d="M716.3 337.5c0 36.2 20.7 69.6 54.4 87.8 33.7 18.1 75.1 18.1 108.8 0s54.4-51.6 54.4-87.8c0-36.2-20.7-69.7-54.4-87.8-33.7-18.1-75.2-18.1-108.8 0-33.6 18.2-54.4 51.6-54.4 87.8z m0 0" fill="#65C8D0" p-id="2535"></path><path d="M825.1 439.4c-60.3 0-109.3-45.7-109.3-101.9 0-56.1 49-101.9 109.3-101.9s109.3 45.7 109.3 101.9c0.1 56.1-49 101.9-109.3 101.9z m0-202.7c-59.7 0-108.3 45.2-108.3 100.8 0 55.6 48.6 100.8 108.3 100.8 59.7 0 108.3-45.2 108.3-100.8 0-55.5-48.6-100.8-108.3-100.8z m0 0" p-id="2536"></path></svg>